# xmcd CD database file
# Copyright (C) 1993-1998 Ti Kan
# 
# Track frame offsets:
#     182
#     9382
#     21795
#     39347
#     54670
#     64697
#     80015
#     96902
#     109007
#     122730
#     147520
#     163480
#     164635
# 
# Disc length: 2499 seconds
# 
# Revision: 1
# Processed by: cddbd v1.4b41PL1 Copyright (c) Steve Scherf et al.
# Submitted via: DiscPlay 4.0.4
# 
DISCID=b309c10d
DTITLE=Cida Moreira - Balada do Louco
DYEAR=1900
DGENRE=
TTITLE0=O Mandarim
TTITLE1=Vocalise
TTITLE2=Mais Que A Lei da Gravidade
TTITLE3=De Presente
TTITLE4=Meu Primeiro Amor (Lejania)
TTITLE5=Balada do Louco
TTITLE6=Una Cerbeja Por Favor
TTITLE7=Ma  s de Vitrine
TTITLE8=Como Diria Satie
TTITLE9=Furac o (Hurricane)
TTITLE10=Clara Crocodilo
TTITLE11=N  Com a Minha M sica
TTITLE12=Surabaya Johnny (Das Lied Vom Surabaya)
EXTD=
EXTT0=
EXTT1=
EXTT2=
EXTT3=
EXTT4=
EXTT5=
EXTT6=
EXTT7=
EXTT8=
EXTT9=
EXTT10=
EXTT11=
EXTT12=
PLAYORDER=
